# xmcd
#
# Track frame offsets:
# 150
# 12824
# 28369
# 43250
# 59558
# 78966
# 92871
# 107999
# 124167
# 140461
# 154252
# 163890
# 182642
#
# Disc length: 2815 seconds
#
# Revision: 1
# Processed by: cddbd v1.4PL0 Copyright (c) Steve Scherf et al.
# Submitted via: Easy CD Ripper v2.20
#
DISCID=b70afd0d
DTITLE=Stephen Bennett - Stephen Bennett, The Best Of
DYEAR=2002
DGENRE=Instrumental
TTITLE0=I knew it was you - Stephen Bennett
TTITLE1=Little Martha - Stephen Bennett
TTITLE2=Waltz for a maple tree - Stephen Bennett
TTITLE3=Run Cathy Freeman, run/advance - Stephen Bennett
TTITLE4=Oregon - Stephen Bennett
TTITLE5=America, the beautiful - Stephen Bennett
TTITLE6=Alpine and coco - Stephen Bennett
TTITLE7=Flawless - Stephen Bennett
TTITLE8=Meditation - Stephen Bennett
TTITLE9=Going home - Stephen Bennett
TTITLE10=Greased pig - Stephen Bennett
TTITLE11=Is this Mexico or what - Stephen Bennett
TTITLE12=Waltz of the flowers - Stephen Bennett
EXTD=
EXTT0=
EXTT1=
EXTT2=
EXTT3=
EXTT4=
EXTT5=
EXTT6=
EXTT7=
EXTT8=
EXTT9=
EXTT10=
EXTT11=
EXTT12=
PLAYORDER=
